# Blender 4.2.2 LTS
# www.blender.org
mtllib slime2.mtl
o Cube
v 0.810630 0.687193 -0.439135
v 0.810630 -0.687193 -0.439135
v 0.810630 0.687193 0.439135
v 0.810630 -0.687193 0.439135
v -0.810630 0.687193 -0.439135
v -0.810630 -0.687193 -0.439135
v -0.810630 0.687193 0.439135
v -0.810630 -0.687193 0.439135
vn -0.0000 1.0000 -0.0000
vn -0.0000 -0.0000 1.0000
vn -1.0000 -0.0000 -0.0000
vn -0.0000 -1.0000 -0.0000
vn 1.0000 -0.0000 -0.0000
vn -0.0000 -0.0000 -1.0000
vt 0.998680 -0.002771
vt -0.000753 -0.002771
vt 0.998681 0.998795
vt -0.000753 0.998796
vt -0.000753 0.998796
vt 0.998681 0.998796
s 0
usemtl Material
f 1/1/1 5/2/1 7/2/1 3/1/1
f 4/3/2 3/1/2 7/2/2 8/4/2
f 8/4/3 7/2/3 5/2/3 6/5/3
f 6/5/4 2/6/4 4/3/4 8/4/4
f 2/6/5 1/1/5 3/1/5 4/3/5
f 6/5/6 5/2/6 1/1/6 2/6/6
